# xmcd CD database file
#
# Track frame offsets:
#	150
#	12664
#	35447
#	61136
#	75961
#	94106
#	113803
#	134860
#	161869
#	176265
#
# Disc length: 2660 seconds
#
# Revision: 0
# Processed by: cddbd v1.5.2PL0 Copyright (c) Steve Scherf et al.
# Submitted via: CDex 1.70beta2
#
DISCID=7d0a620a
DTITLE=MA - Across The City and Into Your Room
DYEAR=2007
DGENRE=Jazz
TTITLE0=Sweet Like A Wave
TTITLE1=No-one Will Be Watching Us
TTITLE2=I Don't Wanna Feel (Like This Anymore)
TTITLE3=Light Summer Dress
TTITLE4=Japanese Bones
TTITLE5=And So I Declined
TTITLE6=Sonar Message
TTITLE7=Me and Vivienne Leigh
TTITLE8=Breathing
TTITLE9=It's A Small Word
EXTD=YEAR: 2007
EXTT0=
EXTT1=
EXTT2=
EXTT3=
EXTT4=
EXTT5=
EXTT6=
EXTT7=
EXTT8=
EXTT9=
PLAYORDER=
